#!OML:ASF F:\VICON\USERDATA\INSTALL\rory3\rory3.ASF
:FULLY-SPECIFIED
:DEGREES
412
root -6.65891 17.9138 0.942399 1.29374 -51.4365 1.73581
lowerback 3.88086 2.6898 0.549433
upperback 1.78066 3.5877 -0.0899071
thorax -0.305784 1.79082 -0.543676
lowerneck -8.59457 -0.402916 -4.44735
upperneck 27.797 0.372889 -1.61707
head 10.2807 -0.605172 0.209193
rclavicle 3.61788e-014 -5.1684e-015
rhumerus -33.9896 -3.55016 -79.027
rradius 28.3826
rwrist -3.18228
rhand -11.4867 16.732
rfingers 7.12502
rthumb 14.5516 -12.7376
lclavicle 3.61788e-014 -5.1684e-015
lhumerus -38.2749 -3.96325 84.4739
lradius 40.5905
lwrist 14.889
lhand -3.80696 27.7793
lfingers 7.12502
lthumb 21.9393 56.5552
rfemur -5.98207 3.42185 24.8767
rtibia 22.7804
rfoot -19.5626 -13.1397
rtoes 1.53573
lfemur -31.0673 -2.47285 -22.1789
ltibia 40.5819
lfoot -10.6906 5.72629
ltoes -26.9999
413
root -6.72287 17.9191 0.989128 1.13272 -51.5234 1.968
lowerback 3.82544 2.73015 0.399219
upperback 1.78791 3.63553 -0.179279
thorax -0.270389 1.81446 -0.550122
lowerneck -8.58996 -0.39294 -4.44328
upperneck 27.8787 0.384821 -1.61287
head 10.3098 -0.601464 0.210851
rclavicle 2.65378e-014 2.18663e-015
rhumerus -33.8407 -3.55832 -79.1422
rradius 28.4268
rwrist -3.14415
rhand -11.4182 16.8185
rfingers 7.12502
rthumb 14.6176 -12.6464
lclavicle 2.65378e-014 2.18663e-015
lhumerus -38.2455 -4.22355 84.6774
lradius 41.1462
lwrist 15.07
lhand -3.76041 27.8566
lfingers 7.12502
lthumb 21.984 56.6273
rfemur -5.62828 3.4209 24.7435
rtibia 22.6242
rfoot -19.7315 -13.0869
rtoes 1.15624
lfemur -30.7307 -2.83033 -22.182
ltibia 38.194
lfoot -10.7229 5.9534
ltoes -25.1629
414
root -6.78595 17.9048 1.03668 1.06315 -51.6512 2.02411
lowerback 3.82847 2.77711 0.320781
upperback 1.7978 3.69501 -0.214509
thorax -0.263849 1.84389 -0.544637
lowerneck -8.44308 -0.376459 -4.48531
upperneck 27.8628 0.389009 -1.5546
head 10.2748 -0.596913 0.23949
rclavicle 8.4732e-014 -7.7526e-015
rhumerus -33.7719 -3.50091 -79.2596
rradius 28.5991
rwrist -3.23313
rhand -11.3463 16.8422
rfingers 7.12502
rthumb 14.6869 -12.6176
lclavicle 8.4732e-014 -7.7526e-015
lhumerus -38.187 -4.50251 84.9374
lradius 41.5677
lwrist 15.2239
lhand -3.85674 27.9906
lfingers 7.12502
lthumb 21.8915 56.7721
rfemur -5.23402 3.29498 24.7258
rtibia 22.4585
rfoot -19.7683 -13.0663
rtoes -0.352571
lfemur -30.1954 -2.99408 -22.1424
ltibia 35.8108
lfoot -10.6597 6.22314
ltoes -25.4234
415
root -6.8473 17.8838 1.08522 1.13165 -51.8802 1.89104
lowerback 3.85198 2.83977 0.356614
upperback 1.80707 3.7795 -0.21449
thorax -0.264137 1.88624 -0.568733
lowerneck -8.39832 -0.345358 -4.56198
upperneck 27.923 0.418178 -1.45939
head 10.2874 -0.582866 0.289386
rclavicle 4.79816e-014 -6.55989e-015
rhumerus -33.687 -3.23259 -79.4533
rradius 28.7759
rwrist -3.49322
rhand -11.3926 16.7629
rfingers 7.12502
rthumb 14.6423 -12.7001
lclavicle 4.79816e-014 -6.55989e-015
lhumerus -38.2271 -4.61741 85.1269
lradius 42.1098
lwrist 15.2086
lhand -3.67205 28.2105
lfingers 7.12502
lthumb 22.0689 56.9712
rfemur -4.7919 3.25684 24.8281
rtibia 22.1995
rfoot -19.7301 -12.9662
rtoes -0.926124
lfemur -29.6059 -3.01528 -22.0154
ltibia 33.4963
lfoot -10.6051 6.5201
ltoes -25.6635
416
root -6.91079 17.8893 1.13576 1.20144 -52.1313 1.80285
lowerback 3.80752 2.89723 0.38531
upperback 1.81814 3.85669 -0.240277
thorax -0.223366 1.92523 -0.611017
lowerneck -8.39392 -0.292327 -4.452
upperneck 27.9892 0.495419 -1.54913
head 10.3099 -0.548697 0.24686
rclavicle 1.16264e-013 -1.07344e-014
rhumerus -33.5443 -3.15888 -79.5922
rradius 28.8477
rwrist -3.5185
rhand -11.233 16.6826
rfingers 7.12502
rthumb 14.7961 -12.7692
lclavicle 1.16264e-013 -1.07344e-014
lhumerus -38.2808 -4.73149 85.2797
lradius 42.6736
lwrist 15.0949
lhand -3.3943 28.2869
lfingers 7.12502
lthumb 22.3355 57.0159
rfemur -4.32526 3.39396 24.89
rtibia 21.8615
rfoot -19.6784 -12.8436
rtoes -0.274627
lfemur -29.2283 -3.05501 -21.8562
ltibia 31.2769
lfoot -10.5587 6.96166
ltoes -25.9263
417
root -6.97616 17.906 1.1858 1.28011 -52.3165 1.75511
lowerback 3.6973 2.94717 0.395186
upperback 1.83569 3.92306 -0.29346
thorax -0.138653 1.95906 -0.666244
lowerneck -8.35745 -0.260467 -4.3078
upperneck 27.9771 0.53073 -1.62609
head 10.2976 -0.526026 0.198789
rclavicle -4.51738e-014 9.14409e-015
rhumerus -33.4107 -3.02841 -79.7883
rradius 28.9905
rwrist -3.69497
rhand -11.2031 16.5533
rfingers 7.12502
rthumb 14.8248 -12.8964
lclavicle -4.51738e-014 9.14409e-015
lhumerus -38.2573 -5.09174 85.4759
lradius 43.1683
lwrist 15.2585
lhand -3.39792 28.2641
lfingers 7.12502
lthumb 22.332 56.9935
rfemur -3.82819 3.54154 24.9364
rtibia 21.4049
rfoot -19.6 -12.8243
rtoes -0.47627
lfemur -28.9534 -3.18742 -21.6825
ltibia 29.1441
lfoot -10.3503 7.67349
ltoes -27.8732
418
root -7.04124 17.9113 1.23594 1.27465 -52.5079 1.84023
lowerback 3.56152 2.98643 0.2909
upperback 1.84905 3.97177 -0.351795
thorax -0.0515282 1.98337 -0.661253
lowerneck -8.32265 -0.210584 -4.31078
upperneck 27.9896 0.582764 -1.56616
head 10.294 -0.496356 0.226292
rclavicle 6.08033e-014 3.37934e-015
rhumerus -33.292 -2.84685 -79.9776
rradius 29.1824
rwrist -3.88872
rhand -11.238 16.4326
rfingers 7.12502
rthumb 14.7912 -13.0196
lclavicle 6.08033e-014 3.37934e-015
lhumerus -38.2582 -5.37762 85.6553
lradius 43.6781
lwrist 15.4557
lhand -3.43414 28.2871
lfingers 7.12502
lthumb 22.2973 57.0207
rfemur -3.29724 3.56151 24.884
rtibia 20.8078
rfoot -19.4829 -12.8003
rtoes -1.53286
lfemur -28.6573 -3.36498 -21.587
ltibia 27.1177
lfoot -10.1986 8.25086
ltoes -27.4898
